# xmcd
#
# Track frame offsets: 
#        150
#        14977
#        40445
#        57660
#        78760
#        90201
#        100695
#        115187
#        130390
#        148415
#        162276
#        188888
#
# Disc length: 2688 seconds
#
# Revision: 1
# Processed by: cddbd v1.5.2PL0 Copyright (c) Steve Scherf et al.
# Submitted via: ExactAudioCopy v1.3
#
DISCID=a60a7e0c
DTITLE=Joan Manuel Serrat - Antología 1969 - 1978 Disco 1
DYEAR=1900
DGENRE=
TTITLE0=Cantares
TTITLE1=Mi niñez
TTITLE2=La mujer que yo quiero
TTITLE3=Decir amigo
TTITLE4=He andado muchos caminos
TTITLE5=La saeta
TTITLE6=La paloma
TTITLE7=El titiritero
TTITLE8=Balada de otoño
TTITLE9=Señora
TTITLE10=Elegía
TTITLE11=Para la libertad
EXTD=
EXTT0=
EXTT1=
EXTT2=
EXTT3=
EXTT4=
EXTT5=
EXTT6=
EXTT7=
EXTT8=
EXTT9=
EXTT10=
EXTT11=
PLAYORDER=
